<?xml version="1.0" encoding="UTF-8"?>
<svg width="1200" height="800" xmlns="http://www.w3.org/2000/svg">
  <!-- Background -->
  <rect width="1200" height="800" fill="#f8f9fa"/>
  
  <!-- Title -->
  <text x="600" y="30" text-anchor="middle" font-family="Arial, sans-serif" font-size="24" font-weight="bold" fill="#2c3e50">
    Commercial Product Power Distribution System
  </text>
  
  <!-- 5V Rail Section -->
  <rect x="50" y="80" width="1100" height="300" rx="10" fill="#fef3c7" stroke="#f59e0b" stroke-width="2"/>
  <text x="70" y="105" font-family="Arial, sans-serif" font-size="18" font-weight="bold" fill="#92400e">5V Power Rail</text>
  
  <!-- Customer 5V Input -->
  <rect x="80" y="130" width="120" height="60" rx="5" fill="#dc2626" stroke="#991b1b" stroke-width="2"/>
  <text x="140" y="155" text-anchor="middle" font-family="Arial, sans-serif" font-size="14" font-weight="bold" fill="#fff">Customer</text>
  <text x="140" y="175" text-anchor="middle" font-family="Arial, sans-serif" font-size="14" font-weight="bold" fill="#fff">ERD 5V</text>
  
  <!-- J1 Terminal -->
  <rect x="250" y="140" width="60" height="40" rx="5" fill="#374151" stroke="#1f2937" stroke-width="2"/>
  <text x="280" y="165" text-anchor="middle" font-family="Arial, sans-serif" font-size="12" font-weight="bold" fill="#fff">J1</text>
  
  <!-- F1 Fuse -->
  <rect x="360" y="140" width="60" height="40" rx="5" fill="#7c2d12" stroke="#451a03" stroke-width="2"/>
  <text x="390" y="160" text-anchor="middle" font-family="Arial, sans-serif" font-size="11" font-weight="bold" fill="#fff">F1</text>
  <text x="390" y="175" text-anchor="middle" font-family="Arial, sans-serif" font-size="10" fill="#fbbf24">2.5A</text>
  
  <!-- D1 Diode -->
  <polygon points="470,140 510,160 470,180 450,160" fill="#059669" stroke="#047857" stroke-width="2"/>
  <text x="480" y="165" text-anchor="middle" font-family="Arial, sans-serif" font-size="10" font-weight="bold" fill="#fff">D1</text>
  <text x="480" y="210" text-anchor="middle" font-family="Arial, sans-serif" font-size="9" fill="#047857">1N5819</text>
  
  <!-- D2 TVS -->
  <polygon points="560,140 600,160 560,180 540,160" fill="#7c3aed" stroke="#5b21b6" stroke-width="2"/>
  <text x="570" y="165" text-anchor="middle" font-family="Arial, sans-serif" font-size="10" font-weight="bold" fill="#fff">D2</text>
  <text x="570" y="210" text-anchor="middle" font-family="Arial, sans-serif" font-size="9" fill="#5b21b6">1N4744A</text>
  
  <!-- Filter Capacitors - Updated to Essential Only -->
  <rect x="650" y="120" width="30" height="60" rx="3" fill="#2563eb" stroke="#1d4ed8" stroke-width="2"/>
  <text x="665" y="155" text-anchor="middle" font-family="Arial, sans-serif" font-size="10" font-weight="bold" fill="#fff">C1</text>
  <text x="665" y="210" text-anchor="middle" font-family="Arial, sans-serif" font-size="8" fill="#1d4ed8">470µF</text>
  
  <rect x="720" y="120" width="30" height="60" rx="3" fill="#2563eb" stroke="#1d4ed8" stroke-width="2"/>
  <text x="735" y="155" text-anchor="middle" font-family="Arial, sans-serif" font-size="10" font-weight="bold" fill="#fff">C5</text>
  <text x="735" y="210" text-anchor="middle" font-family="Arial, sans-serif" font-size="8" fill="#1d4ed8">470µF</text>
  
  <!-- ESP32 VIN -->
  <rect x="800" y="140" width="80" height="40" rx="5" fill="#1e40af" stroke="#1e3a8a" stroke-width="2"/>
  <text x="840" y="165" text-anchor="middle" font-family="Arial, sans-serif" font-size="12" font-weight="bold" fill="#fff">ESP32 VIN</text>
  
  <!-- 5V Rail Connections -->
  <line x1="200" y1="160" x2="250" y2="160" stroke="#dc2626" stroke-width="4"/>
  <line x1="310" y1="160" x2="360" y2="160" stroke="#dc2626" stroke-width="4"/>
  <line x1="420" y1="160" x2="450" y2="160" stroke="#dc2626" stroke-width="4"/>
  <line x1="510" y1="160" x2="540" y2="160" stroke="#dc2626" stroke-width="4"/>
  <line x1="600" y1="160" x2="650" y2="160" stroke="#dc2626" stroke-width="4"/>
  <line x1="680" y1="160" x2="700" y2="160" stroke="#dc2626" stroke-width="4"/>
  <line x1="725" y1="160" x2="800" y2="160" stroke="#dc2626" stroke-width="4"/>
  
  <!-- Ground Connection -->
  <line x1="140" y1="220" x2="940" y2="220" stroke="#374151" stroke-width="4"/>
  <text x="540" y="240" text-anchor="middle" font-family="Arial, sans-serif" font-size="12" fill="#374151">Ground Rail</text>
  
  <!-- 12V Rail Section -->
  <rect x="50" y="420" width="1100" height="250" rx="10" fill="#dcfdf7" stroke="#059669" stroke-width="2"/>
  <text x="70" y="445" font-family="Arial, sans-serif" font-size="18" font-weight="bold" fill="#047857">12V Power Rail</text>
  
  <!-- Customer 12V Input -->
  <rect x="80" y="470" width="120" height="60" rx="5" fill="#dc2626" stroke="#991b1b" stroke-width="2"/>
  <text x="140" y="495" text-anchor="middle" font-family="Arial, sans-serif" font-size="14" font-weight="bold" fill="#fff">Customer</text>
  <text x="140" y="515" text-anchor="middle" font-family="Arial, sans-serif" font-size="14" font-weight="bold" fill="#fff">SMPS 12V</text>
  
  <!-- J2 Terminal -->
  <rect x="250" y="480" width="60" height="40" rx="5" fill="#374151" stroke="#1f2937" stroke-width="2"/>
  <text x="280" y="505" text-anchor="middle" font-family="Arial, sans-serif" font-size="12" font-weight="bold" fill="#fff">J2</text>
  
  <!-- F2 Fuse -->
  <rect x="360" y="480" width="60" height="40" rx="5" fill="#7c2d12" stroke="#451a03" stroke-width="2"/>
  <text x="390" y="500" text-anchor="middle" font-family="Arial, sans-serif" font-size="11" font-weight="bold" fill="#fff">F2</text>
  <text x="390" y="515" text-anchor="middle" font-family="Arial, sans-serif" font-size="10" fill="#fbbf24">3A</text>
  
  <!-- D3 TVS -->
  <polygon points="470,480 510,500 470,520 450,500" fill="#7c3aed" stroke="#5b21b6" stroke-width="2"/>
  <text x="480" y="505" text-anchor="middle" font-family="Arial, sans-serif" font-size="10" font-weight="bold" fill="#fff">D3</text>
  <text x="480" y="550" text-anchor="middle" font-family="Arial, sans-serif" font-size="9" fill="#5b21b6">1N4744A</text>
  
  <!-- 12V Filter Capacitors - Updated to Essential Only -->
  <rect x="570" y="460" width="30" height="60" rx="3" fill="#2563eb" stroke="#1d4ed8" stroke-width="2"/>
  <text x="585" y="495" text-anchor="middle" font-family="Arial, sans-serif" font-size="10" font-weight="bold" fill="#fff">C3</text>
  <text x="585" y="550" text-anchor="middle" font-family="Arial, sans-serif" font-size="8" fill="#1d4ed8">470µF</text>
  
  <!-- J5 Relay Terminal -->
  <rect x="700" y="480" width="80" height="40" rx="5" fill="#059669" stroke="#047857" stroke-width="2"/>
  <text x="740" y="505" text-anchor="middle" font-family="Arial, sans-serif" font-size="12" font-weight="bold" fill="#fff">J5 Relays</text>
  
  <!-- 12V Rail Connections -->
  <line x1="200" y1="500" x2="250" y2="500" stroke="#059669" stroke-width="4"/>
  <line x1="310" y1="500" x2="360" y2="500" stroke="#059669" stroke-width="4"/>
  <line x1="420" y1="500" x2="450" y2="500" stroke="#059669" stroke-width="4"/>
  <line x1="510" y1="500" x2="570" y2="500" stroke="#059669" stroke-width="4"/>
  <line x1="600" y1="500" x2="700" y2="500" stroke="#059669" stroke-width="4"/>
  
  <!-- 12V Ground Connection -->
  <line x1="140" y1="560" x2="790" y2="560" stroke="#374151" stroke-width="4"/>
  
  <!-- 3.3V Internal Distribution -->
  <rect x="50" y="700" width="1100" height="80" rx="10" fill="#fef3e2" stroke="#f59e0b" stroke-width="2"/>
  <text x="70" y="725" font-family="Arial, sans-serif" font-size="18" font-weight="bold" fill="#92400e">3.3V Internal Distribution (ESP32 Onboard Regulator)</text>
  
  <!-- 3.3V Components -->
  <rect x="100" y="740" width="80" height="30" rx="3" fill="#3b82f6" stroke="#1d4ed8" stroke-width="1"/>
  <text x="140" y="760" text-anchor="middle" font-family="Arial, sans-serif" font-size="11" font-weight="bold" fill="#fff">DS3231 RTC</text>
  
  <rect x="200" y="740" width="80" height="30" rx="3" fill="#3b82f6" stroke="#1d4ed8" stroke-width="1"/>
  <text x="240" y="760" text-anchor="middle" font-family="Arial, sans-serif" font-size="11" font-weight="bold" fill="#fff">SSD1306</text>
  
  <rect x="300" y="740" width="80" height="30" rx="3" fill="#3b82f6" stroke="#1d4ed8" stroke-width="1"/>
  <text x="340" y="760" text-anchor="middle" font-family="Arial, sans-serif" font-size="11" font-weight="bold" fill="#fff">DS18B20</text>
  
  <rect x="420" y="740" width="100" height="30" rx="3" fill="#6b7280" stroke="#374151" stroke-width="1"/>
  <text x="470" y="760" text-anchor="middle" font-family="Arial, sans-serif" font-size="11" font-weight="bold" fill="#fff">Decoupling Caps</text>
  
  <!-- Voltage and Current Labels -->
  <text x="950" y="115" font-family="Arial, sans-serif" font-size="14" font-weight="bold" fill="#dc2626">5V @ 2.5A Max</text>
  <text x="880" y="455" font-family="Arial, sans-serif" font-size="14" font-weight="bold" fill="#059669">12V @ 3A Max</text>
  <text x="580" y="755" font-family="Arial, sans-serif" font-size="14" font-weight="bold" fill="#f59e0b">3.3V @ 600mA Max</text>
  
  <!-- Protection Circuit Labels -->
  <text x="480" y="125" text-anchor="middle" font-family="Arial, sans-serif" font-size="10" fill="#047857">Reverse Protection</text>
  <text x="570" y="125" text-anchor="middle" font-family="Arial, sans-serif" font-size="10" fill="#5b21b6">TVS Protection</text>
  <text x="725" y="105" text-anchor="middle" font-family="Arial, sans-serif" font-size="10" fill="#1d4ed8">Primary Filtering</text>
  <text x="480" y="465" text-anchor="middle" font-family="Arial, sans-serif" font-size="10" fill="#5b21b6">TVS Protection</text>
  <text x="607" y="445" text-anchor="middle" font-family="Arial, sans-serif" font-size="10" fill="#1d4ed8">Primary Filtering</text>
</svg>