<?xml version="1.0" encoding="UTF-8"?>
<svg width="1400" height="900" xmlns="http://www.w3.org/2000/svg">
  <!-- Background -->
  <rect width="1400" height="900" fill="#f8f9fa"/>
  
  <!-- Title -->
  <text x="700" y="30" text-anchor="middle" font-family="Arial, sans-serif" font-size="24" font-weight="bold" fill="#2c3e50">
    ESP32 Fish Tank - Complete Power Distribution System
  </text>
  
  <!-- 5V Rail Section -->
  <rect x="50" y="80" width="1300" height="350" rx="10" fill="#fef3c7" stroke="#f59e0b" stroke-width="2"/>
  <text x="70" y="105" font-family="Arial, sans-serif" font-size="18" font-weight="bold" fill="#92400e">5V Power Rail with Protection & Filtering</text>
  
  <!-- Customer 5V Input -->
  <rect x="80" y="130" width="100" height="50" rx="5" fill="#dc2626" stroke="#991b1b" stroke-width="2"/>
  <text x="130" y="150" text-anchor="middle" font-family="Arial, sans-serif" font-size="12" font-weight="bold" fill="#fff">Customer</text>
  <text x="130" y="165" text-anchor="middle" font-family="Arial, sans-serif" font-size="12" font-weight="bold" fill="#fff">ERD 5V/2A</text>
  
  <!-- J1 Terminal -->
  <rect x="220" y="135" width="50" height="40" rx="3" fill="#374151" stroke="#1f2937" stroke-width="2"/>
  <text x="245" y="160" text-anchor="middle" font-family="Arial, sans-serif" font-size="12" font-weight="bold" fill="#fff">J1</text>
  
  <!-- F1 Fuse -->
  <rect x="310" y="135" width="50" height="40" rx="3" fill="#7c2d12" stroke="#451a03" stroke-width="2"/>
  <text x="335" y="152" text-anchor="middle" font-family="Arial, sans-serif" font-size="10" font-weight="bold" fill="#fff">F1</text>
  <text x="335" y="167" text-anchor="middle" font-family="Arial, sans-serif" font-size="9" fill="#fbbf24">2.5A</text>
  
  <!-- FB1 Ferrite Bead -->
  <rect x="400" y="135" width="40" height="40" rx="20" fill="#8b5cf6" stroke="#7c3aed" stroke-width="2"/>
  <text x="420" y="152" text-anchor="middle" font-family="Arial, sans-serif" font-size="9" font-weight="bold" fill="#fff">FB1</text>
  <text x="420" y="167" text-anchor="middle" font-family="Arial, sans-serif" font-size="8" fill="#c4b5fd">120Ω</text>
  
  <!-- D1 Diode -->
  <polygon points="480,135 520,155 480,175 460,155" fill="#059669" stroke="#047857" stroke-width="2"/>
  <text x="490" y="160" text-anchor="middle" font-family="Arial, sans-serif" font-size="9" font-weight="bold" fill="#fff">D1</text>
  <text x="490" y="195" text-anchor="middle" font-family="Arial, sans-serif" font-size="8" fill="#047857">1N5819</text>
  
  <!-- D2 TVS -->
  <polygon points="560,135 600,155 560,175 540,155" fill="#7c3aed" stroke="#5b21b6" stroke-width="2"/>
  <text x="570" y="160" text-anchor="middle" font-family="Arial, sans-serif" font-size="9" font-weight="bold" fill="#fff">D2</text>
  <text x="570" y="195" text-anchor="middle" font-family="Arial, sans-serif" font-size="8" fill="#5b21b6">1N4744A</text>
  
  <!-- C1 Filter Capacitor -->
  <rect x="640" y="115" width="25" height="55" rx="3" fill="#2563eb" stroke="#1d4ed8" stroke-width="2"/>
  <text x="652" y="147" text-anchor="middle" font-family="Arial, sans-serif" font-size="9" font-weight="bold" fill="#fff">C1</text>
  <text x="652" y="190" text-anchor="middle" font-family="Arial, sans-serif" font-size="8" fill="#1d4ed8">470µF</text>
  
  <!-- C5 Filter Capacitor -->
  <rect x="710" y="115" width="25" height="55" rx="3" fill="#2563eb" stroke="#1d4ed8" stroke-width="2"/>
  <text x="722" y="147" text-anchor="middle" font-family="Arial, sans-serif" font-size="9" font-weight="bold" fill="#fff">C5</text>
  <text x="722" y="190" text-anchor="middle" font-family="Arial, sans-serif" font-size="8" fill="#1d4ed8">470µF</text>
  
  <!-- ESP32 VIN -->
  <rect x="780" y="140" width="80" height="35" rx="5" fill="#1e40af" stroke="#1e3a8a" stroke-width="2"/>
  <text x="820" y="162" text-anchor="middle" font-family="Arial, sans-serif" font-size="12" font-weight="bold" fill="#fff">ESP32 VIN</text>
  
  <!-- ESP32 Internal Regulator -->
  <rect x="900" y="140" width="80" height="35" rx="5" fill="#6366f1" stroke="#4f46e5" stroke-width="2"/>
  <text x="940" y="158" text-anchor="middle" font-family="Arial, sans-serif" font-size="10" font-weight="bold" fill="#fff">ESP32</text>
  <text x="940" y="170" text-anchor="middle" font-family="Arial, sans-serif" font-size="9" fill="#c7d2fe">AMS1117-3.3</text>
  
  <!-- 3.3V Output -->
  <rect x="1020" y="140" width="60" height="35" rx="5" fill="#10b981" stroke="#059669" stroke-width="2"/>
  <text x="1050" y="162" text-anchor="middle" font-family="Arial, sans-serif" font-size="12" font-weight="bold" fill="#fff">3.3V Out</text>
  
  <!-- 5V Rail Connections -->
  <line x1="180" y1="155" x2="220" y2="155" stroke="#dc2626" stroke-width="3"/>
  <line x1="270" y1="155" x2="310" y2="155" stroke="#dc2626" stroke-width="3"/>
  <line x1="360" y1="155" x2="400" y2="155" stroke="#dc2626" stroke-width="3"/>
  <line x1="440" y1="155" x2="460" y2="155" stroke="#dc2626" stroke-width="3"/>
  <line x1="520" y1="155" x2="540" y2="155" stroke="#dc2626" stroke-width="3"/>
  <line x1="600" y1="155" x2="640" y2="155" stroke="#dc2626" stroke-width="3"/>
  <line x1="665" y1="155" x2="710" y2="155" stroke="#dc2626" stroke-width="3"/>
  <line x1="735" y1="155" x2="780" y2="155" stroke="#dc2626" stroke-width="3"/>
  <line x1="860" y1="157" x2="900" y2="157" stroke="#dc2626" stroke-width="3"/>
  <line x1="980" y1="157" x2="1020" y2="157" stroke="#10b981" stroke-width="3"/>
  
  <!-- 5V Ground Connections -->
  <line x1="130" y1="210" x2="1050" y2="210" stroke="#374151" stroke-width="3"/>
  <line x1="652" y1="170" x2="652" y2="210" stroke="#374151" stroke-width="2"/>
  <line x1="722" y1="170" x2="722" y2="210" stroke="#374151" stroke-width="2"/>
  <line x1="820" y1="175" x2="820" y2="210" stroke="#374151" stroke-width="2"/>
  <line x1="940" y1="175" x2="940" y2="210" stroke="#374151" stroke-width="2"/>
  <line x1="1050" y1="175" x2="1050" y2="210" stroke="#374151" stroke-width="2"/>
  
  <!-- Protection Resistors Section -->
  <rect x="50" y="250" width="600" height="160" rx="8" fill="#f3f4f6" stroke="#6b7280" stroke-width="2"/>
  <text x="70" y="275" font-family="Arial, sans-serif" font-size="16" font-weight="bold" fill="#374151">GPIO Protection Resistors</text>
  
  <!-- R9 - DS18B20 Protection -->
  <rect x="80" y="300" width="30" height="15" rx="2" fill="#f59e0b" stroke="#d97706" stroke-width="1"/>
  <text x="95" y="312" text-anchor="middle" font-family="Arial, sans-serif" font-size="8" font-weight="bold" fill="#fff">R9</text>
  <text x="95" y="330" text-anchor="middle" font-family="Arial, sans-serif" font-size="8" fill="#92400e">100Ω</text>
  <text x="95" y="342" text-anchor="middle" font-family="Arial, sans-serif" font-size="7" fill="#6b7280">DS18B20</text>
  
  <!-- R10 - Buzzer Protection -->
  <rect x="140" y="300" width="30" height="15" rx="2" fill="#f59e0b" stroke="#d97706" stroke-width="1"/>
  <text x="155" y="312" text-anchor="middle" font-family="Arial, sans-serif" font-size="8" font-weight="bold" fill="#fff">R10</text>
  <text x="155" y="330" text-anchor="middle" font-family="Arial, sans-serif" font-size="8" fill="#92400e">100Ω</text>
  <text x="155" y="342" text-anchor="middle" font-family="Arial, sans-serif" font-size="7" fill="#6b7280">Buzzer</text>
  
  <!-- R11-R12 - I2C Protection -->
  <rect x="200" y="300" width="30" height="15" rx="2" fill="#8b5cf6" stroke="#7c3aed" stroke-width="1"/>
  <text x="215" y="312" text-anchor="middle" font-family="Arial, sans-serif" font-size="8" font-weight="bold" fill="#fff">R11</text>
  <text x="215" y="330" text-anchor="middle" font-family="Arial, sans-serif" font-size="8" fill="#5b21b6">82Ω</text>
  <text x="215" y="342" text-anchor="middle" font-family="Arial, sans-serif" font-size="7" fill="#6b7280">I2C SDA</text>
  
  <rect x="260" y="300" width="30" height="15" rx="2" fill="#8b5cf6" stroke="#7c3aed" stroke-width="1"/>
  <text x="275" y="312" text-anchor="middle" font-family="Arial, sans-serif" font-size="8" font-weight="bold" fill="#fff">R12</text>
  <text x="275" y="330" text-anchor="middle" font-family="Arial, sans-serif" font-size="8" fill="#5b21b6">82Ω</text>
  <text x="275" y="342" text-anchor="middle" font-family="Arial, sans-serif" font-size="7" fill="#6b7280">I2C SCL</text>
  
  <!-- R4-R8 - Relay Protection -->
  <rect x="80" y="360" width="30" height="15" rx="2" fill="#ef4444" stroke="#dc2626" stroke-width="1"/>
  <text x="95" y="372" text-anchor="middle" font-family="Arial, sans-serif" font-size="8" font-weight="bold" fill="#fff">R4</text>
  <text x="95" y="390" text-anchor="middle" font-family="Arial, sans-serif" font-size="8" fill="#b91c1c">330Ω</text>
  
  <rect x="140" y="360" width="30" height="15" rx="2" fill="#ef4444" stroke="#dc2626" stroke-width="1"/>
  <text x="155" y="372" text-anchor="middle" font-family="Arial, sans-serif" font-size="8" font-weight="bold" fill="#fff">R5</text>
  <text x="155" y="390" text-anchor="middle" font-family="Arial, sans-serif" font-size="8" fill="#b91c1c">330Ω</text>
  
  <rect x="200" y="360" width="30" height="15" rx="2" fill="#ef4444" stroke="#dc2626" stroke-width="1"/>
  <text x="215" y="372" text-anchor="middle" font-family="Arial, sans-serif" font-size="8" font-weight="bold" fill="#fff">R6</text>
  <text x="215" y="390" text-anchor="middle" font-family="Arial, sans-serif" font-size="8" fill="#b91c1c">330Ω</text>
  
  <rect x="260" y="360" width="30" height="15" rx="2" fill="#ef4444" stroke="#dc2626" stroke-width="1"/>
  <text x="275" y="372" text-anchor="middle" font-family="Arial, sans-serif" font-size="8" font-weight="bold" fill="#fff">R7</text>
  <text x="275" y="390" text-anchor="middle" font-family="Arial, sans-serif" font-size="8" fill="#b91c1c">330Ω</text>
  
  <rect x="320" y="360" width="30" height="15" rx="2" fill="#ef4444" stroke="#dc2626" stroke-width="1"/>
  <text x="335" y="372" text-anchor="middle" font-family="Arial, sans-serif" font-size="8" font-weight="bold" fill="#fff">R8</text>
  <text x="335" y="390" text-anchor="middle" font-family="Arial, sans-serif" font-size="8" fill="#b91c1c">330Ω</text>
  
  <text x="200" y="392" text-anchor="middle" font-family="Arial, sans-serif" font-size="8" fill="#6b7280">Relay Controls</text>
  
  <!-- Pull-up Resistors -->
  <rect x="400" y="300" width="30" height="15" rx="2" fill="#10b981" stroke="#059669" stroke-width="1"/>
  <text x="415" y="312" text-anchor="middle" font-family="Arial, sans-serif" font-size="8" font-weight="bold" fill="#fff">R1</text>
  <text x="415" y="330" text-anchor="middle" font-family="Arial, sans-serif" font-size="8" fill="#047857">4.7kΩ</text>
  <text x="415" y="342" text-anchor="middle" font-family="Arial, sans-serif" font-size="7" fill="#6b7280">DS18B20</text>
  
  <rect x="460" y="300" width="30" height="15" rx="2" fill="#10b981" stroke="#059669" stroke-width="1"/>
  <text x="475" y="312" text-anchor="middle" font-family="Arial, sans-serif" font-size="8" font-weight="bold" fill="#fff">R2</text>
  <text x="475" y="330" text-anchor="middle" font-family="Arial, sans-serif" font-size="8" fill="#047857">4.7kΩ</text>
  <text x="475" y="342" text-anchor="middle" font-family="Arial, sans-serif" font-size="7" fill="#6b7280">I2C SDA</text>
  
  <rect x="520" y="300" width="30" height="15" rx="2" fill="#10b981" stroke="#059669" stroke-width="1"/>
  <text x="535" y="312" text-anchor="middle" font-family="Arial, sans-serif" font-size="8" font-weight="bold" fill="#fff">R3</text>
  <text x="535" y="330" text-anchor="middle" font-family="Arial, sans-serif" font-size="8" fill="#047857">4.7kΩ</text>
  <text x="535" y="342" text-anchor="middle" font-family="Arial, sans-serif" font-size="7" fill="#6b7280">I2C SCL</text>
  
  <!-- 12V Rail Section -->
  <rect x="50" y="450" width="1300" height="250" rx="10" fill="#dcfdf7" stroke="#059669" stroke-width="2"/>
  <text x="70" y="475" font-family="Arial, sans-serif" font-size="18" font-weight="bold" fill="#047857">12V Power Rail (Relay Power)</text>
  
  <!-- Customer 12V Input -->
  <rect x="80" y="500" width="100" height="50" rx="5" fill="#dc2626" stroke="#991b1b" stroke-width="2"/>
  <text x="130" y="520" text-anchor="middle" font-family="Arial, sans-serif" font-size="12" font-weight="bold" fill="#fff">Customer</text>
  <text x="130" y="535" text-anchor="middle" font-family="Arial, sans-serif" font-size="12" font-weight="bold" fill="#fff">SMPS 12V/3A</text>
  
  <!-- J2 Terminal -->
  <rect x="220" y="505" width="50" height="40" rx="3" fill="#374151" stroke="#1f2937" stroke-width="2"/>
  <text x="245" y="530" text-anchor="middle" font-family="Arial, sans-serif" font-size="12" font-weight="bold" fill="#fff">J2</text>
  
  <!-- F2 Fuse -->
  <rect x="310" y="505" width="50" height="40" rx="3" fill="#7c2d12" stroke="#451a03" stroke-width="2"/>
  <text x="335" y="522" text-anchor="middle" font-family="Arial, sans-serif" font-size="10" font-weight="bold" fill="#fff">F2</text>
  <text x="335" y="537" text-anchor="middle" font-family="Arial, sans-serif" font-size="9" fill="#fbbf24">3A</text>
  
  <!-- FB2 Ferrite Bead -->
  <rect x="400" y="505" width="40" height="40" rx="20" fill="#8b5cf6" stroke="#7c3aed" stroke-width="2"/>
  <text x="420" y="522" text-anchor="middle" font-family="Arial, sans-serif" font-size="9" font-weight="bold" fill="#fff">FB2</text>
  <text x="420" y="537" text-anchor="middle" font-family="Arial, sans-serif" font-size="8" fill="#c4b5fd">120Ω</text>
  
  <!-- D3 TVS -->
  <polygon points="480,505 520,525 480,545 460,525" fill="#7c3aed" stroke="#5b21b6" stroke-width="2"/>
  <text x="490" y="530" text-anchor="middle" font-family="Arial, sans-serif" font-size="9" font-weight="bold" fill="#fff">D3</text>
  <text x="490" y="565" text-anchor="middle" font-family="Arial, sans-serif" font-size="8" fill="#5b21b6">1N4744A</text>
  
  <!-- C3 Filter Capacitor -->
  <rect x="560" y="485" width="25" height="55" rx="3" fill="#2563eb" stroke="#1d4ed8" stroke-width="2"/>
  <text x="572" y="517" text-anchor="middle" font-family="Arial, sans-serif" font-size="9" font-weight="bold" fill="#fff">C3</text>
  <text x="572" y="560" text-anchor="middle" font-family="Arial, sans-serif" font-size="8" fill="#1d4ed8">470µF</text>
  
  <!-- J5 Relay Terminal -->
  <rect x="630" y="510" width="80" height="35" rx="5" fill="#059669" stroke="#047857" stroke-width="2"/>
  <text x="670" y="532" text-anchor="middle" font-family="Arial, sans-serif" font-size="12" font-weight="bold" fill="#fff">J5 Relays</text>
  
  <!-- 12V Rail Connections -->
  <line x1="180" y1="525" x2="220" y2="525" stroke="#059669" stroke-width="3"/>
  <line x1="270" y1="525" x2="310" y2="525" stroke="#059669" stroke-width="3"/>
  <line x1="360" y1="525" x2="400" y2="525" stroke="#059669" stroke-width="3"/>
  <line x1="440" y1="525" x2="460" y2="525" stroke="#059669" stroke-width="3"/>
  <line x1="520" y1="525" x2="560" y2="525" stroke="#059669" stroke-width="3"/>
  <line x1="585" y1="525" x2="630" y2="525" stroke="#059669" stroke-width="3"/>
  
  <!-- 12V Ground Connections -->
  <line x1="130" y1="580" x2="670" y2="580" stroke="#374151" stroke-width="3"/>
  <line x1="572" y1="540" x2="572" y2="580" stroke="#374151" stroke-width="2"/>
  <line x1="670" y1="545" x2="670" y2="580" stroke="#374151" stroke-width="2"/>
  
  <!-- 3.3V Distribution Section -->
  <rect x="50" y="730" width="1300" height="120" rx="10" fill="#fef3e2" stroke="#f59e0b" stroke-width="2"/>
  <text x="70" y="755" font-family="Arial, sans-serif" font-size="18" font-weight="bold" fill="#92400e">3.3V Distribution (ESP32 Internal Regulator Output)</text>
  
  <!-- 3.3V Load Components -->
  <rect x="100" y="775" width="80" height="25" rx="3" fill="#3b82f6" stroke="#1d4ed8" stroke-width="1"/>
  <text x="140" y="792" text-anchor="middle" font-family="Arial, sans-serif" font-size="10" font-weight="bold" fill="#fff">DS3231 RTC</text>
  <text x="140" y="820" text-anchor="middle" font-family="Arial, sans-serif" font-size="8" fill="#1d4ed8">~20mA</text>
  
  <rect x="200" y="775" width="80" height="25" rx="3" fill="#3b82f6" stroke="#1d4ed8" stroke-width="1"/>
  <text x="240" y="792" text-anchor="middle" font-family="Arial, sans-serif" font-size="10" font-weight="bold" fill="#fff">SSD1306 OLED</text>
  <text x="240" y="820" text-anchor="middle" font-family="Arial, sans-serif" font-size="8" fill="#1d4ed8">~30mA</text>
  
  <rect x="300" y="775" width="80" height="25" rx="3" fill="#3b82f6" stroke="#1d4ed8" stroke-width="1"/>
  <text x="340" y="792" text-anchor="middle" font-family="Arial, sans-serif" font-size="10" font-weight="bold" fill="#fff">DS18B20</text>
  <text x="340" y="820" text-anchor="middle" font-family="Arial, sans-serif" font-size="8" fill="#1d4ed8">~5mA</text>
  
  <rect x="400" y="775" width="100" height="25" rx="3" fill="#6b7280" stroke="#374151" stroke-width="1"/>
  <text x="450" y="792" text-anchor="middle" font-family="Arial, sans-serif" font-size="10" font-weight="bold" fill="#fff">Pull-up Resistors</text>
  <text x="450" y="820" text-anchor="middle" font-family="Arial, sans-serif" font-size="8" fill="#374151">R1, R2, R3</text>
  
  <!-- Current and Voltage Labels -->
  <text x="1150" y="115" font-family="Arial, sans-serif" font-size="12" font-weight="bold" fill="#dc2626">5V @ 2.5A Max</text>
  <text x="1150" y="130" font-family="Arial, sans-serif" font-size="10" fill="#6b7280">Customer ERD Charger</text>
  
  <text x="850" y="485" font-family="Arial, sans-serif" font-size="12" font-weight="bold" fill="#059669">12V @ 3A Max</text>
  <text x="850" y="500" font-family="Arial, sans-serif" font-size="10" fill="#6b7280">Customer SMPS</text>
  
  <text x="600" y="785" font-family="Arial, sans-serif" font-size="12" font-weight="bold" fill="#f59e0b">3.3V @ 600mA Max</text>
  <text x="600" y="800" font-family="Arial, sans-serif" font-size="10" fill="#6b7280">ESP32 AMS1117 Regulator</text>
  
  <!-- Component Notes -->
  <text x="70" y="230" font-family="Arial, sans-serif" font-size="10" fill="#6b7280">• FB1/FB2: 120Ω@100MHz, 1A, 0603 SMD</text>
  <text x="270" y="230" font-family="Arial, sans-serif" font-size="10" fill="#6b7280">• C1/C3/C5: 470µF/25V Electrolytic</text>
  <text x="520" y="230" font-family="Arial, sans-serif" font-size="10" fill="#6b7280">• D1: 1N5819 Schottky, D2/D3: 1N4744A TVS</text>
  
  <text x="70" y="420" font-family="Arial, sans-serif" font-size="10" fill="#6b7280">Protection: R9/R10=100Ω, R11/R12=82Ω, R4-R8=330Ω, R1-R3=4.7kΩ</text>
  
  <text x="70" y="720" font-family="Arial, sans-serif" font-size="10" fill="#6b7280">• Remove VCC-JD-VCC jumper on relay module for opto-isolation</text>
  <text x="400" y="720" font-family="Arial, sans-serif" font-size="10" fill="#6b7280">• Customer provides external 6A MCB for AC protection</text>
</svg>